# xmcd
#
# Track frame offsets:
#	150
#	11455
#	22274
#	37182
#	50255
#	63999
#	73179
#	88369
#	98519
#	120205
#
# Disc length: 1950 seconds
#
# Revision: 1
# Processed by: cddbd v1.5PL3 Copyright (c) Steve Scherf et al.
# Submitted via: audiograbber 1.82.01
#
DISCID=81079c0a
DTITLE=Christian Echoes - Portrait of Love
DYEAR=2003
DGENRE=Gospel
TTITLE0=Amazing Grace
TTITLE1=Heaven Is No Place For Crying
TTITLE2=I'll Never Sing A Sad Song Again
TTITLE3=The Harvesst Has Past
TTITLE4=Sweet By And By
TTITLE5=This World Is Not My Home
TTITLE6=Portrait Of Love
TTITLE7=Three Men On The Mountain
TTITLE8=Kind Shepherd
TTITLE9=The Apple Tree Song
EXTD=
EXTT0=
EXTT1=
EXTT2=
EXTT3=
EXTT4=
EXTT5=
EXTT6=
EXTT7=
EXTT8=
EXTT9=
PLAYORDER=
